<svg width="215" height="27" viewBox="0 0 215 27" fill="none" xmlns="http://www.w3.org/2000/svg">
<path d="M16.76 10.384C16.248 9.44533 15.544 8.73067 14.648 8.24C13.752 7.74933 12.7067 7.504 11.512 7.504C10.1893 7.504 9.016 7.80267 7.992 8.4C6.968 8.99733 6.168 9.85067 5.592 10.96C5.016 12.0693 4.728 13.3493 4.728 14.8C4.728 16.2933 5.016 17.5947 5.592 18.704C6.18933 19.8133 7.01067 20.6667 8.056 21.264C9.10133 21.8613 10.3173 22.16 11.704 22.16C13.4107 22.16 14.808 21.712 15.896 20.816C16.984 19.8987 17.6987 18.6293 18.04 17.008H10.36V13.584H22.456V17.488C22.1573 19.0453 21.5173 20.4853 20.536 21.808C19.5547 23.1307 18.2853 24.1973 16.728 25.008C15.192 25.7973 13.464 26.192 11.544 26.192C9.38933 26.192 7.43733 25.712 5.688 24.752C3.96 23.7707 2.59467 22.416 1.592 20.688C0.610667 18.96 0.12 16.9973 0.12 14.8C0.12 12.6027 0.610667 10.64 1.592 8.912C2.59467 7.16267 3.96 5.808 5.688 4.848C7.43733 3.86667 9.37867 3.376 11.512 3.376C14.0293 3.376 16.216 3.99467 18.072 5.232C19.928 6.448 21.208 8.16533 21.912 10.384H16.76ZM28.0425 6.16C27.2532 6.16 26.5918 5.91467 26.0585 5.424C25.5465 4.912 25.2905 4.28267 25.2905 3.536C25.2905 2.78933 25.5465 2.17067 26.0585 1.68C26.5918 1.168 27.2532 0.911999 28.0425 0.911999C28.8318 0.911999 29.4825 1.168 29.9945 1.68C30.5278 2.17067 30.7945 2.78933 30.7945 3.536C30.7945 4.28267 30.5278 4.912 29.9945 5.424C29.4825 5.91467 28.8318 6.16 28.0425 6.16ZM30.2505 8.272V26H25.7705V8.272H30.2505ZM39.8928 11.952V20.528C39.8928 21.1253 40.0314 21.5627 40.3088 21.84C40.6074 22.096 41.0981 22.224 41.7808 22.224H43.8608V26H41.0448C37.2688 26 35.3808 24.1653 35.3808 20.496V11.952H33.2688V8.272H35.3808V3.888H39.8928V8.272H43.8608V11.952H39.8928ZM65.611 3.664V26H61.131V16.496H51.563V26H47.083V3.664H51.563V12.848H61.131V3.664H65.611ZM86.7565 8.272V26H82.2445V23.76C81.6685 24.528 80.9112 25.136 79.9725 25.584C79.0552 26.0107 78.0525 26.224 76.9645 26.224C75.5778 26.224 74.3512 25.936 73.2845 25.36C72.2178 24.7627 71.3752 23.8987 70.7565 22.768C70.1592 21.616 69.8605 20.2507 69.8605 18.672V8.272H74.3405V18.032C74.3405 19.44 74.6925 20.528 75.3965 21.296C76.1005 22.0427 77.0605 22.416 78.2765 22.416C79.5138 22.416 80.4845 22.0427 81.1885 21.296C81.8925 20.528 82.2445 19.44 82.2445 18.032V8.272H86.7565ZM95.6568 10.864C96.2328 10.0107 97.0221 9.31733 98.0248 8.784C99.0488 8.25067 100.211 7.984 101.513 7.984C103.027 7.984 104.393 8.35733 105.609 9.104C106.846 9.85067 107.817 10.9173 108.521 12.304C109.246 13.6693 109.609 15.2587 109.609 17.072C109.609 18.8853 109.246 20.496 108.521 21.904C107.817 23.2907 106.846 24.368 105.609 25.136C104.393 25.904 103.027 26.288 101.513 26.288C100.19 26.288 99.0274 26.032 98.0248 25.52C97.0434 24.9867 96.2541 24.304 95.6568 23.472V26H91.1768V2.32H95.6568V10.864ZM105.033 17.072C105.033 16.0053 104.809 15.088 104.361 14.32C103.934 13.5307 103.358 12.9333 102.633 12.528C101.929 12.1227 101.161 11.92 100.329 11.92C99.5181 11.92 98.7501 12.1333 98.0248 12.56C97.3208 12.9653 96.7448 13.5627 96.2968 14.352C95.8701 15.1413 95.6568 16.0693 95.6568 17.136C95.6568 18.2027 95.8701 19.1307 96.2968 19.92C96.7448 20.7093 97.3208 21.3173 98.0248 21.744C98.7501 22.1493 99.5181 22.352 100.329 22.352C101.161 22.352 101.929 22.1387 102.633 21.712C103.358 21.2853 103.934 20.6773 104.361 19.888C104.809 19.0987 105.033 18.16 105.033 17.072Z" fill="#D1512D"/>
<path d="M126.793 26.196C125.505 26.196 124.348 25.972 123.321 25.524C122.313 25.0573 121.52 24.4227 120.941 23.62C120.363 22.7987 120.064 21.856 120.045 20.792H122.761C122.855 21.7067 123.228 22.4813 123.881 23.116C124.553 23.732 125.524 24.04 126.793 24.04C128.007 24.04 128.959 23.7413 129.649 23.144C130.359 22.528 130.713 21.744 130.713 20.792C130.713 20.0453 130.508 19.4387 130.097 18.972C129.687 18.5053 129.173 18.1507 128.557 17.908C127.941 17.6653 127.111 17.404 126.065 17.124C124.777 16.788 123.741 16.452 122.957 16.116C122.192 15.78 121.529 15.2573 120.969 14.548C120.428 13.82 120.157 12.8493 120.157 11.636C120.157 10.572 120.428 9.62933 120.969 8.808C121.511 7.98667 122.267 7.352 123.237 6.904C124.227 6.456 125.356 6.232 126.625 6.232C128.455 6.232 129.948 6.68933 131.105 7.604C132.281 8.51867 132.944 9.732 133.093 11.244H130.293C130.2 10.4973 129.808 9.844 129.117 9.284C128.427 8.70533 127.512 8.416 126.373 8.416C125.309 8.416 124.441 8.696 123.769 9.256C123.097 9.79733 122.761 10.5627 122.761 11.552C122.761 12.2613 122.957 12.84 123.349 13.288C123.76 13.736 124.255 14.0813 124.833 14.324C125.431 14.548 126.261 14.8093 127.325 15.108C128.613 15.4627 129.649 15.8173 130.433 16.172C131.217 16.508 131.889 17.04 132.449 17.768C133.009 18.4773 133.289 19.448 133.289 20.68C133.289 21.632 133.037 22.528 132.533 23.368C132.029 24.208 131.283 24.8893 130.293 25.412C129.304 25.9347 128.137 26.196 126.793 26.196ZM151.039 17.74C151.039 18.2253 151.011 18.7387 150.955 19.28H138.691C138.784 20.792 139.297 21.9773 140.231 22.836C141.183 23.676 142.331 24.096 143.675 24.096C144.776 24.096 145.691 23.844 146.419 23.34C147.165 22.8173 147.688 22.1267 147.987 21.268H150.731C150.32 22.7427 149.499 23.9467 148.267 24.88C147.035 25.7947 145.504 26.252 143.675 26.252C142.219 26.252 140.912 25.9253 139.755 25.272C138.616 24.6187 137.72 23.6947 137.067 22.5C136.413 21.2867 136.087 19.8867 136.087 18.3C136.087 16.7133 136.404 15.3227 137.039 14.128C137.673 12.9333 138.56 12.0187 139.699 11.384C140.856 10.7307 142.181 10.404 143.675 10.404C145.131 10.404 146.419 10.7213 147.539 11.356C148.659 11.9907 149.517 12.868 150.115 13.988C150.731 15.0893 151.039 16.34 151.039 17.74ZM148.407 17.208C148.407 16.2373 148.192 15.4067 147.763 14.716C147.333 14.0067 146.745 13.4747 145.999 13.12C145.271 12.7467 144.459 12.56 143.563 12.56C142.275 12.56 141.173 12.9707 140.259 13.792C139.363 14.6133 138.849 15.752 138.719 17.208H148.407ZM153.45 18.272C153.45 16.704 153.767 15.332 154.402 14.156C155.037 12.9613 155.905 12.0373 157.006 11.384C158.126 10.7307 159.367 10.404 160.73 10.404C162.074 10.404 163.241 10.6933 164.23 11.272C165.219 11.8507 165.957 12.5787 166.442 13.456V10.656H169.018V26H166.442V23.144C165.938 24.04 165.182 24.7867 164.174 25.384C163.185 25.9627 162.027 26.252 160.702 26.252C159.339 26.252 158.107 25.916 157.006 25.244C155.905 24.572 155.037 23.6293 154.402 22.416C153.767 21.2027 153.45 19.8213 153.45 18.272ZM166.442 18.3C166.442 17.1427 166.209 16.1347 165.742 15.276C165.275 14.4173 164.641 13.764 163.838 13.316C163.054 12.8493 162.186 12.616 161.234 12.616C160.282 12.616 159.414 12.84 158.63 13.288C157.846 13.736 157.221 14.3893 156.754 15.248C156.287 16.1067 156.054 17.1147 156.054 18.272C156.054 19.448 156.287 20.4747 156.754 21.352C157.221 22.2107 157.846 22.8733 158.63 23.34C159.414 23.788 160.282 24.012 161.234 24.012C162.186 24.012 163.054 23.788 163.838 23.34C164.641 22.8733 165.275 22.2107 165.742 21.352C166.209 20.4747 166.442 19.4573 166.442 18.3ZM175.872 13.148C176.32 12.2707 176.955 11.5893 177.776 11.104C178.616 10.6187 179.633 10.376 180.828 10.376V13.008H180.156C177.3 13.008 175.872 14.5573 175.872 17.656V26H173.324V10.656H175.872V13.148ZM182.817 18.3C182.817 16.7133 183.135 15.332 183.769 14.156C184.404 12.9613 185.281 12.0373 186.401 11.384C187.54 10.7307 188.837 10.404 190.293 10.404C192.179 10.404 193.728 10.8613 194.941 11.776C196.173 12.6907 196.985 13.96 197.377 15.584H194.633C194.372 14.6507 193.859 13.9133 193.093 13.372C192.347 12.8307 191.413 12.56 190.293 12.56C188.837 12.56 187.661 13.064 186.765 14.072C185.869 15.0613 185.421 16.4707 185.421 18.3C185.421 20.148 185.869 21.576 186.765 22.584C187.661 23.592 188.837 24.096 190.293 24.096C191.413 24.096 192.347 23.8347 193.093 23.312C193.84 22.7893 194.353 22.0427 194.633 21.072H197.377C196.967 22.64 196.145 23.9 194.913 24.852C193.681 25.7853 192.141 26.252 190.293 26.252C188.837 26.252 187.54 25.9253 186.401 25.272C185.281 24.6187 184.404 23.6947 183.769 22.5C183.135 21.3053 182.817 19.9053 182.817 18.3ZM208.393 10.376C209.55 10.376 210.596 10.628 211.529 11.132C212.462 11.6173 213.19 12.3547 213.713 13.344C214.254 14.3333 214.525 15.5373 214.525 16.956V26H212.005V17.32C212.005 15.7893 211.622 14.6227 210.857 13.82C210.092 12.9987 209.046 12.588 207.721 12.588C206.377 12.588 205.304 13.008 204.501 13.848C203.717 14.688 203.325 15.9107 203.325 17.516V26H200.777V5.28H203.325V12.84C203.829 12.056 204.52 11.4493 205.397 11.02C206.293 10.5907 207.292 10.376 208.393 10.376Z" fill="#411530"/>
</svg>
